<?xml version="1.0" encoding="UTF-8" standalone="no"?>
<!DOCTYPE svg PUBLIC "-//W3C//DTD SVG 1.1//EN"
 "http://www.w3.org/Graphics/SVG/1.1/DTD/svg11.dtd">
<!-- Generated by graphviz version 11.0.0 (20240428.1522)
 -->
<!-- Title: ObjectGraph Pages: 1 -->
<svg width="381pt" height="230pt"
 viewBox="0.00 0.00 380.62 230.00" xmlns="http://www.w3.org/2000/svg" xmlns:xlink="http://www.w3.org/1999/xlink">
<g id="graph0" class="graph" transform="scale(1 1) rotate(0) translate(4 226)">
<title>ObjectGraph</title>
<polygon fill="white" stroke="none" points="-4,4 -4,-226 376.62,-226 376.62,4 -4,4"/>
<!-- o3124071381856 -->
<g id="node1" class="node">
<title>o3124071381856</title>
<polygon fill="#ffffff" stroke="black" points="277,-39.5 0,-39.5 0,0 277,0 277,-39.5"/>
<text text-anchor="middle" x="138.5" y="-22.2" font-family="Times New Roman,serif" font-size="14.00" fill="red">Room</text>
<text text-anchor="middle" x="138.5" y="-6.45" font-family="Times New Roman,serif" font-size="14.00" fill="red">&lt;unogame.room.room.Room object at 0x0000</text>
</g>
<!-- o3124068987584 -->
<g id="node2" class="node">
<title>o3124068987584</title>
<polygon fill="#ededed" stroke="black" points="169.75,-130.75 107.25,-130.75 107.25,-91.25 169.75,-91.25 169.75,-130.75"/>
<text text-anchor="middle" x="138.5" y="-113.45" font-family="Times New Roman,serif" font-size="14.00">dict</text>
<text text-anchor="middle" x="138.5" y="-97.7" font-family="Times New Roman,serif" font-size="14.00">25 items</text>
</g>
<!-- o3124068987584&#45;&gt;o3124071381856 -->
<g id="edge1" class="edge">
<title>o3124068987584&#45;&gt;o3124071381856</title>
<path fill="none" stroke="black" d="M138.5,-91.07C138.5,-79.55 138.5,-64.57 138.5,-51.4"/>
<polygon fill="black" stroke="black" points="142,-51.47 138.5,-41.47 135,-51.47 142,-51.47"/>
<text text-anchor="middle" x="153.5" y="-59.95" font-family="Times New Roman,serif" font-size="14.00">room</text>
</g>
<!-- o3124068804752 -->
<g id="node3" class="node">
<title>o3124068804752</title>
<polygon fill="#2bdb00" stroke="black" points="78.62,-222 6.38,-222 6.38,-182.5 78.62,-182.5 78.62,-222"/>
<text text-anchor="middle" x="42.5" y="-204.7" font-family="Times New Roman,serif" font-size="14.00">module</text>
<text text-anchor="middle" x="42.5" y="-188.95" font-family="Times New Roman,serif" font-size="14.00">__main__</text>
</g>
<!-- o3124068804752&#45;&gt;o3124068987584 -->
<g id="edge2" class="edge">
<title>o3124068804752&#45;&gt;o3124068987584</title>
<path fill="none" stroke="black" d="M62.86,-182.32C76.51,-169.63 94.69,-152.73 109.81,-138.68"/>
<polygon fill="black" stroke="black" points="111.79,-141.61 116.73,-132.24 107.02,-136.48 111.79,-141.61"/>
<text text-anchor="middle" x="122" y="-151.2" font-family="Times New Roman,serif" font-size="14.00">__dict__</text>
</g>
<!-- o3124068852064 -->
<g id="node4" class="node">
<title>o3124068852064</title>
<polygon fill="#dbdbdb" stroke="black" points="372.62,-222 96.38,-222 96.38,-182.5 372.62,-182.5 372.62,-222"/>
<text text-anchor="middle" x="234.5" y="-204.7" font-family="Times New Roman,serif" font-size="14.00">function</text>
<text text-anchor="middle" x="234.5" y="-188.95" font-family="Times New Roman,serif" font-size="14.00">&lt;function &lt;module&gt; at 0x000002D76103A160</text>
</g>
<!-- o3124068852064&#45;&gt;o3124068987584 -->
<g id="edge3" class="edge">
<title>o3124068852064&#45;&gt;o3124068987584</title>
<path fill="none" stroke="black" d="M214.14,-182.32C200.49,-169.63 182.31,-152.73 167.19,-138.68"/>
<polygon fill="black" stroke="black" points="169.98,-136.48 160.27,-132.24 165.21,-141.61 169.98,-136.48"/>
<text text-anchor="middle" x="226.38" y="-151.2" font-family="Times New Roman,serif" font-size="14.00">__globals__</text>
</g>
</g>
</svg>
